<svg id="Group_162668" data-name="Group 162668" xmlns="http://www.w3.org/2000/svg" xmlns:xlink="http://www.w3.org/1999/xlink" width="66.252" height="56" viewBox="0 0 66.252 56">
  <defs>
    <linearGradient id="linear-gradient" x1="0.5" x2="0.5" y2="1" gradientUnits="objectBoundingBox">
      <stop offset="0" stop-color="#0034de"/>
      <stop offset="1" stop-color="#0093de"/>
    </linearGradient>
  </defs>
  <path id="Path_83673" data-name="Path 83673" d="M73.837,78.017H48.045a.972.972,0,1,0,0,1.944H73.837a.972.972,0,1,0,0-1.944Z" transform="translate(-40.982 -73.047)" fill="url(#linear-gradient)"/>
  <path id="Path_83674" data-name="Path 83674" d="M395.734,325.832c-.16-.056-.322-.115-.485-.175V322.39a2.049,2.049,0,0,1,.557.315l.094.068a.972.972,0,1,0,1.121-1.587,4.624,4.624,0,0,0-1.773-.815v-.558a1,1,0,0,0-.942-1.012.972.972,0,0,0-1,.972v.636c-.093.022-.186.046-.281.075a3.354,3.354,0,0,0-2.3,2.629c-.4,2.1.848,3.075,2.58,3.853v4.283a2.985,2.985,0,0,1-1.426-.569,1,1,0,0,0-1.359.231.972.972,0,0,0,.262,1.374,4.824,4.824,0,0,0,2.524.915v.609a1,1,0,0,0,.942,1.012.972.972,0,0,0,1-.972v-.765c3.449-.918,4.241-5.926.485-7.253Zm-3.1-2.359a1.5,1.5,0,0,1,.67-1v2.316A1.079,1.079,0,0,1,392.635,323.473ZM395.249,331v-3.269A1.823,1.823,0,0,1,395.249,331Z" transform="translate(-339.832 -282.674)" fill="url(#linear-gradient)"/>
  <path id="Path_83675" data-name="Path 83675" d="M340.5,289.027a11.863,11.863,0,1,0,11.863,11.863A11.877,11.877,0,0,0,340.5,289.027Zm0,21.783a9.919,9.919,0,1,1,9.919-9.919A9.931,9.931,0,0,1,340.5,310.81Z" transform="translate(-286.115 -256.753)" fill="url(#linear-gradient)"/>
  <path id="Path_83676" data-name="Path 83676" d="M41.515,90.289H3.29a1.348,1.348,0,0,1-1.347-1.347V51.495H58.79V69.842a.972.972,0,0,0,1.944,0V42.9a3.294,3.294,0,0,0-3.29-3.29H3.29A3.294,3.294,0,0,0,0,42.9v46.04a3.294,3.294,0,0,0,3.29,3.29H41.515a.972.972,0,0,0,0-1.944ZM1.944,42.9A1.348,1.348,0,0,1,3.29,41.556H57.444A1.348,1.348,0,0,1,58.79,42.9v6.649H1.944Z" transform="translate(0 -39.612)" fill="url(#linear-gradient)"/>
  <path id="Path_83677" data-name="Path 83677" d="M325.454,64.493a2.722,2.722,0,1,0,2.722,2.722A2.725,2.725,0,0,0,325.454,64.493Zm0,3.5a.778.778,0,1,1,.778-.778A.779.779,0,0,1,325.454,67.993Z" transform="translate(-280.971 -61.273)" fill="url(#linear-gradient)"/>
  <path id="Path_83678" data-name="Path 83678" d="M381.611,64.493a2.722,2.722,0,1,0,2.722,2.722A2.725,2.725,0,0,0,381.611,64.493Zm0,3.5a.778.778,0,1,1,.778-.778A.779.779,0,0,1,381.611,67.993Z" transform="translate(-329.862 -61.273)" fill="url(#linear-gradient)"/>
  <path id="Path_83679" data-name="Path 83679" d="M49.986,184.625H51.9a2.333,2.333,0,0,0,2.291-1.836l1.671-7.492h2.081c3.308,0,7.891.7,11.176,3.977v.483a3.114,3.114,0,1,0,6.228,0l0-22.134a3.114,3.114,0,1,0-6.228,0v.483c-3.286,3.278-7.869,3.978-11.177,3.978h-10.1a2.764,2.764,0,0,0-2.67,2.07H45a4.722,4.722,0,0,0,0,9.443h.288a2.765,2.765,0,0,0,2.351,1.691v6.99a2.35,2.35,0,0,0,2.347,2.346Zm2.3-2.259a.4.4,0,0,1-.393.315H49.986a.4.4,0,0,1-.4-.4V175.3h4.281Zm19.938-25.915a1.17,1.17,0,0,1,1.17,1.17l0,22.134a1.17,1.17,0,1,1-2.341,0l0-22.135A1.17,1.17,0,0,1,72.226,156.451Zm-14.291,7.576a18.114,18.114,0,0,0,11.177-3.348V176.7a18.114,18.114,0,0,0-11.176-3.346h-.462v-9.326ZM45,171.652h0a2.778,2.778,0,0,1,0-5.555h.075v5.555Zm2.019.871v-7.679a.818.818,0,0,1,.817-.817h7.7v9.326h-7.7a.819.819,0,0,1-.817-.83Z" transform="translate(-35.067 -139.64)" fill="url(#linear-gradient)"/>
</svg>
