<svg id="Group_162665" data-name="Group 162665" xmlns="http://www.w3.org/2000/svg" xmlns:xlink="http://www.w3.org/1999/xlink" width="66.907" height="56" viewBox="0 0 66.907 56">
  <defs>
    <linearGradient id="linear-gradient" x1="0.5" x2="0.5" y2="1" gradientUnits="objectBoundingBox">
      <stop offset="0" stop-color="#0034de"/>
      <stop offset="1" stop-color="#0093de"/>
    </linearGradient>
  </defs>
  <path id="Path_83662" data-name="Path 83662" d="M48.6,249.749H36l-1.318-1.318,3.308-3.308a1.5,1.5,0,0,0-.538-2.471l-17.268-6.426a1.633,1.633,0,0,0-2.1,2.1l4.251,11.423H5.027a3.07,3.07,0,0,1-3.066-3.066V225.54a.98.98,0,0,0-1.96,0v21.142a5.032,5.032,0,0,0,5.027,5.027H23.069l1.445,3.884a1.5,1.5,0,0,0,2.471.539l3.308-3.308,3.368,3.368a1.636,1.636,0,0,0,2.31,0l2.083-2.083a1.636,1.636,0,0,0,0-2.31h0l-.089-.089H48.6a.98.98,0,0,0,0-1.961Zm-13.788,4.825-3.829-3.829a.981.981,0,0,0-1.386,0l-3.5,3.5-5.929-15.931L36.1,244.24l-3.5,3.5a.98.98,0,0,0,0,1.386l3.829,3.829Z" transform="translate(0 -200.669)" fill="url(#linear-gradient)"/>
  <path id="Path_83663" data-name="Path 83663" d="M61.88,41.732H58.453a.98.98,0,1,0,0,1.96H61.88a3.07,3.07,0,0,1,3.066,3.066V52.9H1.96V46.759a3.07,3.07,0,0,1,3.066-3.066H53.921a.98.98,0,1,0,0-1.96H5.027A5.032,5.032,0,0,0,0,46.759V62.193a.98.98,0,1,0,1.96,0V54.86H64.946V87.746a3.07,3.07,0,0,1-3.066,3.066H53.3a.98.98,0,0,0,0,1.96h8.58a5.032,5.032,0,0,0,5.027-5.027V46.759A5.032,5.032,0,0,0,61.88,41.732Z" transform="translate(0 -41.732)" fill="url(#linear-gradient)"/>
  <path id="Path_83664" data-name="Path 83664" d="M49.7,79.884a1.815,1.815,0,1,0,1.815-1.815A1.815,1.815,0,0,0,49.7,79.884Z" transform="translate(-43.204 -73.321)" fill="url(#linear-gradient)"/>
  <path id="Path_83665" data-name="Path 83665" d="M92.434,79.884a1.815,1.815,0,1,0,1.815-1.815A1.815,1.815,0,0,0,92.434,79.884Z" transform="translate(-80.355 -73.321)" fill="url(#linear-gradient)"/>
  <path id="Path_83666" data-name="Path 83666" d="M135.17,79.884a1.815,1.815,0,1,0,1.815-1.815A1.815,1.815,0,0,0,135.17,79.884Z" transform="translate(-117.506 -73.321)" fill="url(#linear-gradient)"/>
  <path id="Path_83667" data-name="Path 83667" d="M63.886,231.427h.006a.98.98,0,0,0,.923-.651l2.428-6.812,2.32,6.8a.98.98,0,0,0,.924.664h0a.98.98,0,0,0,.925-.656l3.291-9.389a.98.98,0,0,0-1.85-.648L70.5,227.448,68.19,220.67a.987.987,0,0,0-1.851-.013l-2.431,6.822L61.6,220.75a.98.98,0,1,0-1.854.637l3.222,9.378A.98.98,0,0,0,63.886,231.427Z" transform="translate(-51.889 -196.722)" fill="url(#linear-gradient)"/>
  <path id="Path_83668" data-name="Path 83668" d="M202.653,231.426h.006a.98.98,0,0,0,.923-.651l2.428-6.812,2.32,6.8a.98.98,0,0,0,.923.664h0a.98.98,0,0,0,.925-.656l3.291-9.389a.98.98,0,0,0-1.85-.648l-2.353,6.714-2.312-6.778a.987.987,0,0,0-1.851-.013l-2.431,6.822-2.312-6.729a.98.98,0,1,0-1.854.637l3.222,9.378A.981.981,0,0,0,202.653,231.426Z" transform="translate(-172.522 -196.721)" fill="url(#linear-gradient)"/>
  <path id="Path_83669" data-name="Path 83669" d="M339.168,231.427h.005a.98.98,0,0,0,.923-.651l2.428-6.812,2.32,6.8a.98.98,0,0,0,.923.664h0a.98.98,0,0,0,.925-.656l3.291-9.389a.98.98,0,0,0-1.85-.648l-2.353,6.714-2.312-6.778a.987.987,0,0,0-1.851-.013l-2.431,6.822-2.313-6.729a.98.98,0,0,0-1.854.637l3.223,9.378A.98.98,0,0,0,339.168,231.427Z" transform="translate(-291.198 -196.722)" fill="url(#linear-gradient)"/>
</svg>
