<svg xmlns="http://www.w3.org/2000/svg" xmlns:xlink="http://www.w3.org/1999/xlink" width="55.999" height="55.999" viewBox="0 0 55.999 55.999">
  <defs>
    <linearGradient id="linear-gradient" x1="0.5" x2="0.5" y2="1" gradientUnits="objectBoundingBox">
      <stop offset="0" stop-color="#0034de"/>
      <stop offset="1" stop-color="#0093de"/>
    </linearGradient>
  </defs>
  <path id="Path_83184" data-name="Path 83184" d="M17.416,9.8a.875.875,0,0,0,1.021-.168C22.474,5.513,29.76,7.33,32.918,8.788l-.93,1.612a.875.875,0,0,0,.853,1.307l9.03-.991a.875.875,0,0,0,.726-1.17L39.319.574a.875.875,0,0,0-1.58-.137L36.83,2.012A15.63,15.63,0,0,0,23.016,1.4a10.277,10.277,0,0,0-6.068,7.48A.875.875,0,0,0,17.416,9.8Zm6.348-6.821a14.042,14.042,0,0,1,12.959.964.875.875,0,0,0,1.2-.32l.4-.692L40.57,9.1l-6.2.681.527-.912a.875.875,0,0,0-.32-1.2A19.9,19.9,0,0,0,26.6,5.409q-.626-.044-1.229-.043A12.5,12.5,0,0,0,19.6,6.639,9.426,9.426,0,0,1,23.764,2.983Zm31.5,22.444-3.131-.5a10.063,10.063,0,0,0-.652-1.573l1.86-2.569a.875.875,0,0,0-.09-1.132l-2.416-2.416a.875.875,0,0,0-1.132-.09l-2.568,1.86a10.066,10.066,0,0,0-1.573-.653l-.5-3.13a.875.875,0,0,0-.864-.737H40.778a.875.875,0,0,0-.864.737l-.5,3.13a10.062,10.062,0,0,0-1.573.653l-2.568-1.86a.875.875,0,0,0-1.132.09l-2.416,2.416a.875.875,0,0,0-.09,1.132l1.86,2.568a10.055,10.055,0,0,0-.652,1.573l-3.131.5a.875.875,0,0,0-.737.864v3.416a.875.875,0,0,0,.737.864l3.131.5a10.068,10.068,0,0,0,.652,1.573l-1.86,2.569a.875.875,0,0,0,.09,1.132l2.416,2.416a.875.875,0,0,0,1.132.09l2.569-1.86a10.069,10.069,0,0,0,1.573.653l.5,3.13a.875.875,0,0,0,.864.737h3.417a.875.875,0,0,0,.864-.737l.5-3.131a10.06,10.06,0,0,0,1.573-.652l2.569,1.86a.875.875,0,0,0,1.132-.09l2.416-2.416a.875.875,0,0,0,.09-1.132l-1.86-2.569a10.054,10.054,0,0,0,.652-1.573l3.13-.5A.875.875,0,0,0,56,29.707V26.291A.875.875,0,0,0,55.262,25.427Zm-1.013,3.534-2.943.471a.875.875,0,0,0-.709.647,8.309,8.309,0,0,1-.905,2.182.875.875,0,0,0,.044.959l1.748,2.415L50.123,37l-2.415-1.748a.875.875,0,0,0-.959-.044,8.321,8.321,0,0,1-2.182.9.875.875,0,0,0-.647.709l-.471,2.943H41.524l-.471-2.942a.875.875,0,0,0-.647-.709,8.311,8.311,0,0,1-2.182-.9.875.875,0,0,0-.959.044L34.849,37l-1.361-1.361,1.748-2.415a.875.875,0,0,0,.044-.959,8.319,8.319,0,0,1-.9-2.182.875.875,0,0,0-.709-.647l-2.943-.471V27.037l2.943-.471a.875.875,0,0,0,.709-.647,8.316,8.316,0,0,1,.9-2.182.875.875,0,0,0-.044-.959l-1.748-2.415L34.849,19l2.415,1.748a.875.875,0,0,0,.959.044,8.315,8.315,0,0,1,2.183-.9.875.875,0,0,0,.647-.709l.471-2.943h1.924l.471,2.943a.875.875,0,0,0,.647.709,8.311,8.311,0,0,1,2.182.9.875.875,0,0,0,.959-.044L50.123,19l1.361,1.361-1.748,2.415a.875.875,0,0,0-.044.959,8.319,8.319,0,0,1,.9,2.182.875.875,0,0,0,.709.647l2.943.471ZM42.486,22.076A5.923,5.923,0,1,0,48.409,28,5.93,5.93,0,0,0,42.486,22.076Zm0,10.1A4.173,4.173,0,1,1,46.659,28,4.178,4.178,0,0,1,42.486,32.172ZM17.621,39.431v-.652A2.2,2.2,0,0,0,18.9,36.786V35.493a11.689,11.689,0,0,1,1.828-6.124,8.342,8.342,0,0,0,1.45-4.817,9.013,9.013,0,1,0-18.026,0A8.342,8.342,0,0,0,5.6,29.369a11.689,11.689,0,0,1,1.828,6.124v1.293A2.2,2.2,0,0,0,8.8,38.819v.612a2.2,2.2,0,0,0,1.356,2.029v.616a2.2,2.2,0,0,0,2.2,2.2h1.716a2.2,2.2,0,0,0,2.2-2.2V41.46A2.2,2.2,0,0,0,17.621,39.431Zm-2.2.447H10.995a.453.453,0,0,1-.447-.447v-.448h5.323v.448A.453.453,0,0,1,15.424,39.878Zm-5.8-2.645a.453.453,0,0,1-.447-.447v-.448h7.968v.448a.453.453,0,0,1-.447.447Zm1.256-11.605H9.869a1.016,1.016,0,1,1,1.016-1.016Zm2.811,8.96H12.635v-7.21H13.7ZM5.9,24.552a7.263,7.263,0,1,1,14.526,0,6.717,6.717,0,0,1-1.211,3.933,13.139,13.139,0,0,0-2,6.1H15.445v-7.21h1.016A2.766,2.766,0,1,0,13.7,24.612v1.016H12.635V24.612a2.766,2.766,0,1,0-2.766,2.766h1.016v7.21H9.116a13.139,13.139,0,0,0-2-6.1A6.716,6.716,0,0,1,5.9,24.552Zm9.543,1.076V24.612a1.016,1.016,0,1,1,1.016,1.016Zm-1.378,16.9H12.351a.453.453,0,0,1-.447-.447v-.448h2.611v.448A.453.453,0,0,1,14.067,42.523ZM12.29,13.663V11.747a.875.875,0,0,1,1.75,0v1.917a.875.875,0,0,1-1.75,0Zm-6.979.422a.875.875,0,0,1,1.515-.875l.958,1.66a.875.875,0,1,1-1.516.875ZM3.292,20.239a.875.875,0,0,1-1.2.32L.437,19.6a.875.875,0,1,1,.875-1.515l1.66.959A.875.875,0,0,1,3.292,20.239ZM20.7,12.89a.875.875,0,0,1,.32,1.2l-.958,1.66a.875.875,0,0,1-1.516-.875l.958-1.66A.875.875,0,0,1,20.7,12.89Zm5.515,5.515a.875.875,0,0,1-.32,1.2l-1.66.958a.875.875,0,1,1-.875-1.515l1.66-.958A.875.875,0,0,1,26.214,18.405ZM41.466,46.655a.876.876,0,0,0-1.021.168c-3.771,3.85-10.566,2.179-13.559.813l.851-1.474a.875.875,0,0,0-.853-1.307l-8.52.935a.875.875,0,0,0-.726,1.17l3.093,8.465a.875.875,0,0,0,.746.571c.025,0,.051,0,.076,0a.875.875,0,0,0,.758-.437l.834-1.445a14.787,14.787,0,0,0,13.036.555,9.745,9.745,0,0,0,5.753-7.095A.875.875,0,0,0,41.466,46.655ZM35.433,53.09a13.2,13.2,0,0,1-12.181-.907.875.875,0,0,0-1.2.32l-.324.562-2.067-5.657,5.694-.625-.448.776a.875.875,0,0,0,.32,1.2,18.828,18.828,0,0,0,7.545,2.141,12.591,12.591,0,0,0,6.478-1.088A8.91,8.91,0,0,1,35.433,53.09Z" transform="translate(0.001 0)" fill="url(#linear-gradient)"/>
</svg>
