<svg xmlns="http://www.w3.org/2000/svg" width="1577.01" height="499.512" viewBox="0 0 1577.01 499.512">
  <g id="shapes" transform="translate(1.309 0.954)" opacity="0.2">
    <rect id="Rectangle_26" data-name="Rectangle 26" width="16.9" height="16.926" transform="translate(1504.53 87.633) rotate(-21)" fill="none" stroke="#0093de" stroke-linecap="round" stroke-linejoin="round" stroke-width="5" opacity="0.71"/>
    <g id="Group_217" data-name="Group 217" transform="translate(1552.53 418.72) rotate(-8)" opacity="0.71">
      <path id="Path_6" data-name="Path 6" d="M0,17c2.123-2.125,5.474,1.22,7.594-.9S6.365,10.626,8.487,8.5s5.472,1.22,7.594-.9-1.229-5.471.9-7.6" transform="translate(0 0)" fill="none" stroke="#0093de" stroke-linecap="round" stroke-linejoin="round" stroke-width="5"/>
    </g>
    <path id="Path_120" data-name="Path 120" d="M8.487,17a8.5,8.5,0,0,1,0-17" transform="translate(1037.916 2.577) rotate(42)" fill="none" stroke="#0093de" stroke-linecap="round" stroke-linejoin="round" stroke-width="5" opacity="0.71"/>
    <g id="Group_218" data-name="Group 218" transform="translate(0 300.099) rotate(-11)" opacity="0.71">
      <line id="Line_11" data-name="Line 11" y2="17" transform="translate(8.487 0)" fill="none" stroke="#0093de" stroke-linecap="round" stroke-linejoin="round" stroke-width="5"/>
      <line id="Line_12" data-name="Line 12" x1="16.974" transform="translate(0 8.5)" fill="none" stroke="#0093de" stroke-linecap="round" stroke-linejoin="round" stroke-width="5"/>
    </g>
    <path id="Path_121" data-name="Path 121" d="M5.756,17,0,0,17.867,1.423Z" transform="translate(762.459 473.956) rotate(17)" fill="none" stroke="#0093de" stroke-linecap="round" stroke-linejoin="round" stroke-width="5" opacity="0.71"/>
  </g>
</svg>
